<svg width="291" height="63" viewBox="0 0 291 63" fill="none" xmlns="http://www.w3.org/2000/svg">
<rect x="20.323" y="58.9355" width="4.06451" height="4.06451" fill="black"/>
<rect x="24.3871" y="54.8709" width="4.06451" height="4.06451" fill="black"/>
<rect x="28.4517" y="50.8065" width="4.06451" height="4.06451" fill="black"/>
<rect x="32.5162" y="46.742" width="4.06451" height="4.06451" fill="black"/>
<rect x="36.5809" y="42.6775" width="4.06451" height="4.06451" fill="black"/>
<rect x="40.645" y="38.6129" width="4.06451" height="4.06451" fill="black"/>
<rect x="44.7101" y="35.3787" width="4.06451" height="4.06451" fill="black"/>
<rect x="48.7747" y="32.5161" width="4.06451" height="4.06451" fill="black"/>
<rect x="20.323" y="54.8709" width="4.06451" height="4.06451" fill="black"/>
<rect x="24.3871" y="50.8065" width="4.06451" height="4.06451" fill="black"/>
<rect x="28.4517" y="46.742" width="4.06451" height="4.06451" fill="black"/>
<rect x="32.5162" y="42.6775" width="4.06451" height="4.06451" fill="black"/>
<rect x="36.5809" y="38.6129" width="4.06451" height="4.06451" fill="black"/>
<rect x="40.645" y="34.5484" width="4.06451" height="4.06451" fill="black"/>
<rect x="44.7101" y="31.3144" width="4.06451" height="4.06451" fill="black"/>
<rect x="48.7747" y="28.4517" width="4.06451" height="4.06451" fill="black"/>
<rect x="20.323" y="50.8065" width="4.06451" height="4.06451" fill="black"/>
<rect x="24.3871" y="46.742" width="4.06451" height="4.06451" fill="black"/>
<rect x="28.4517" y="42.6775" width="4.06451" height="4.06451" fill="black"/>
<rect x="32.5162" y="38.6129" width="4.06451" height="4.06451" fill="black"/>
<rect x="36.5809" y="34.5484" width="4.06451" height="4.06451" fill="black"/>
<rect x="40.645" y="30.4839" width="4.06451" height="4.06451" fill="black"/>
<rect x="44.7101" y="27.2497" width="4.06451" height="4.06451" fill="black"/>
<rect x="48.7747" y="24.3871" width="4.06451" height="4.06451" fill="black"/>
<rect x="20.323" y="46.742" width="4.06451" height="4.06451" fill="black"/>
<rect x="24.3871" y="42.6775" width="4.06451" height="4.06451" fill="black"/>
<rect x="28.4517" y="38.6129" width="4.06451" height="4.06451" fill="black"/>
<rect x="32.5162" y="34.5484" width="4.06451" height="4.06451" fill="black"/>
<rect x="36.5809" y="30.4839" width="4.06451" height="4.06451" fill="black"/>
<rect x="40.645" y="26.4194" width="4.06451" height="4.06451" fill="black"/>
<rect x="44.7101" y="23.1854" width="4.06451" height="4.06451" fill="black"/>
<rect x="48.7747" y="20.3227" width="4.06451" height="4.06451" fill="black"/>
<rect x="20.323" y="42.6775" width="4.06451" height="4.06451" fill="black"/>
<rect x="24.3871" y="38.6129" width="4.06451" height="4.06451" fill="black"/>
<rect x="28.4517" y="34.5484" width="4.06451" height="4.06451" fill="black"/>
<rect x="32.5162" y="30.4839" width="4.06451" height="4.06451" fill="black"/>
<rect x="36.5809" y="26.4194" width="4.06451" height="4.06451" fill="black"/>
<rect x="40.645" y="22.3549" width="4.06451" height="4.06451" fill="black"/>
<rect x="44.7101" y="19.1207" width="4.06451" height="4.06451" fill="black"/>
<rect x="48.7747" y="16.2581" width="4.06451" height="4.06451" fill="black"/>
<rect x="20.323" y="38.6129" width="4.06451" height="4.06451" fill="black"/>
<rect x="24.3871" y="34.5484" width="4.06451" height="4.06451" fill="black"/>
<rect x="28.4517" y="30.4839" width="4.06451" height="4.06451" fill="black"/>
<rect x="32.5162" y="26.4194" width="4.06451" height="4.06451" fill="black"/>
<rect x="36.5809" y="22.3549" width="4.06451" height="4.06451" fill="black"/>
<rect x="40.645" y="18.2904" width="4.06451" height="4.06451" fill="black"/>
<rect x="44.7101" y="15.0563" width="4.06451" height="4.06451" fill="black"/>
<rect x="48.7747" y="12.1937" width="4.06451" height="4.06451" fill="black"/>
<rect x="20.323" y="34.5484" width="4.06451" height="4.06451" fill="black"/>
<rect x="24.3871" y="30.4839" width="4.06451" height="4.06451" fill="black"/>
<rect x="28.4517" y="26.4194" width="4.06451" height="4.06451" fill="black"/>
<rect x="32.5162" y="22.3549" width="4.06451" height="4.06451" fill="black"/>
<rect x="36.5809" y="18.2904" width="4.06451" height="4.06451" fill="black"/>
<rect x="40.645" y="14.2258" width="4.06451" height="4.06451" fill="black"/>
<rect x="44.7101" y="10.9916" width="4.06451" height="4.06451" fill="black"/>
<rect x="48.7747" y="8.12906" width="4.06451" height="4.06451" fill="black"/>
<rect x="20.323" y="30.4839" width="4.06451" height="4.06451" fill="black"/>
<rect x="24.3871" y="26.4194" width="4.06451" height="4.06451" fill="black"/>
<rect x="28.4517" y="22.3549" width="4.06451" height="4.06451" fill="black"/>
<rect x="32.5162" y="18.2904" width="4.06451" height="4.06451" fill="black"/>
<rect x="36.5809" y="14.2258" width="4.06451" height="4.06451" fill="black"/>
<rect x="40.645" y="10.1613" width="4.06451" height="4.06451" fill="black"/>
<rect x="44.7101" y="6.92728" width="4.06451" height="4.06451" fill="black"/>
<rect x="48.7747" y="4.06461" width="4.06451" height="4.06451" fill="black"/>
<rect x="20.323" y="26.4194" width="4.06451" height="4.06451" fill="black"/>
<rect x="24.3871" y="22.3549" width="4.06451" height="4.06451" fill="black"/>
<rect x="28.4517" y="18.2904" width="4.06451" height="4.06451" fill="black"/>
<rect x="32.5162" y="14.2258" width="4.06451" height="4.06451" fill="black"/>
<rect x="36.5809" y="10.1613" width="4.06451" height="4.06451" fill="black"/>
<rect x="40.645" y="6.09683" width="4.06451" height="4.06451" fill="black"/>
<rect x="44.7101" y="2.86264" width="4.06451" height="4.06451" fill="black"/>
<rect x="48.7747" width="4.06451" height="4.06451" fill="black"/>
<rect y="58.9355" width="4.06451" height="4.06451" fill="#FF0000"/>
<rect x="4.06458" y="54.8709" width="4.06451" height="4.06451" fill="#FF0000"/>
<rect x="8.12915" y="50.8065" width="4.06451" height="4.06451" fill="#FF0000"/>
<rect x="12.1938" y="46.742" width="4.06451" height="4.06451" fill="#FF0000"/>
<rect x="16.2579" y="42.6775" width="4.06451" height="4.06451" fill="#FF0000"/>
<rect x="20.323" y="38.6129" width="4.06451" height="4.06451" fill="#FF0000"/>
<rect x="24.3876" y="35.3787" width="4.06451" height="4.06451" fill="#FF0000"/>
<rect x="28.4521" y="32.5161" width="4.06451" height="4.06451" fill="#FF0000"/>
<rect y="54.8709" width="4.06451" height="4.06451" fill="#FF0000"/>
<rect x="4.06458" y="50.8065" width="4.06451" height="4.06451" fill="#FF0000"/>
<rect x="8.12915" y="46.742" width="4.06451" height="4.06451" fill="#FF0000"/>
<rect x="12.1938" y="42.6775" width="4.06451" height="4.06451" fill="#FF0000"/>
<rect x="16.2579" y="38.6129" width="4.06451" height="4.06451" fill="#FF0000"/>
<rect x="20.323" y="34.5484" width="4.06451" height="4.06451" fill="#FF0000"/>
<rect x="24.3876" y="31.3144" width="4.06451" height="4.06451" fill="#FF0000"/>
<rect x="28.4521" y="28.4517" width="4.06451" height="4.06451" fill="#FF0000"/>
<rect y="50.8065" width="4.06451" height="4.06451" fill="#FF0000"/>
<rect x="4.06458" y="46.742" width="4.06451" height="4.06451" fill="#FF0000"/>
<rect x="8.12915" y="42.6775" width="4.06451" height="4.06451" fill="#FF0000"/>
<rect x="12.1938" y="38.6129" width="4.06451" height="4.06451" fill="#FF0000"/>
<rect x="16.2579" y="34.5484" width="4.06451" height="4.06451" fill="#FF0000"/>
<rect x="20.323" y="30.4839" width="4.06451" height="4.06451" fill="#FF0000"/>
<rect x="24.3876" y="27.2497" width="4.06451" height="4.06451" fill="#FF0000"/>
<rect x="28.4521" y="24.3871" width="4.06451" height="4.06451" fill="#FF0000"/>
<rect y="46.742" width="4.06451" height="4.06451" fill="#FF0000"/>
<rect x="4.06458" y="42.6775" width="4.06451" height="4.06451" fill="#FF0000"/>
<rect x="8.12915" y="38.6129" width="4.06451" height="4.06451" fill="#FF0000"/>
<rect x="12.1938" y="34.5484" width="4.06451" height="4.06451" fill="#FF0000"/>
<rect x="16.2579" y="30.4839" width="4.06451" height="4.06451" fill="#FF0000"/>
<rect x="20.323" y="26.4194" width="4.06451" height="4.06451" fill="#FF0000"/>
<rect x="24.3876" y="23.1854" width="4.06451" height="4.06451" fill="#FF0000"/>
<rect x="28.4521" y="20.3227" width="4.06451" height="4.06451" fill="#FF0000"/>
<rect y="42.6775" width="4.06451" height="4.06451" fill="#FF0000"/>
<rect x="4.06458" y="38.6129" width="4.06451" height="4.06451" fill="#FF0000"/>
<rect x="8.12915" y="34.5484" width="4.06451" height="4.06451" fill="#FF0000"/>
<rect x="12.1938" y="30.4839" width="4.06451" height="4.06451" fill="#FF0000"/>
<rect x="16.2579" y="26.4194" width="4.06451" height="4.06451" fill="#FF0000"/>
<rect x="20.323" y="22.3549" width="4.06451" height="4.06451" fill="#FF0000"/>
<rect x="24.3876" y="19.1207" width="4.06451" height="4.06451" fill="#FF0000"/>
<rect x="28.4521" y="16.2581" width="4.06451" height="4.06451" fill="#FF0000"/>
<rect y="38.6129" width="4.06451" height="4.06451" fill="#FF0000"/>
<rect x="4.06458" y="34.5484" width="4.06451" height="4.06451" fill="#FF0000"/>
<rect x="8.12915" y="30.4839" width="4.06451" height="4.06451" fill="#FF0000"/>
<rect x="12.1938" y="26.4194" width="4.06451" height="4.06451" fill="#FF0000"/>
<rect x="16.2579" y="22.3549" width="4.06451" height="4.06451" fill="#FF0000"/>
<rect x="20.323" y="18.2904" width="4.06451" height="4.06451" fill="#FF0000"/>
<rect x="24.3876" y="15.0563" width="4.06451" height="4.06451" fill="#FF0000"/>
<rect x="28.4521" y="12.1937" width="4.06451" height="4.06451" fill="#FF0000"/>
<rect y="34.5484" width="4.06451" height="4.06451" fill="#FF0000"/>
<rect x="4.06458" y="30.4839" width="4.06451" height="4.06451" fill="#FF0000"/>
<rect x="8.12915" y="26.4194" width="4.06451" height="4.06451" fill="#FF0000"/>
<rect x="12.1938" y="22.3549" width="4.06451" height="4.06451" fill="#FF0000"/>
<rect x="16.2579" y="18.2904" width="4.06451" height="4.06451" fill="#FF0000"/>
<rect x="20.323" y="14.2258" width="4.06451" height="4.06451" fill="#FF0000"/>
<rect x="24.3876" y="10.9916" width="4.06451" height="4.06451" fill="#FF0000"/>
<rect x="28.4521" y="8.12906" width="4.06451" height="4.06451" fill="#FF0000"/>
<rect y="30.4839" width="4.06451" height="4.06451" fill="#FF0000"/>
<rect x="4.06458" y="26.4194" width="4.06451" height="4.06451" fill="#FF0000"/>
<rect x="8.12915" y="22.3549" width="4.06451" height="4.06451" fill="#FF0000"/>
<rect x="12.1938" y="18.2904" width="4.06451" height="4.06451" fill="#FF0000"/>
<rect x="16.2579" y="14.2258" width="4.06451" height="4.06451" fill="#FF0000"/>
<rect x="20.323" y="10.1613" width="4.06451" height="4.06451" fill="#FF0000"/>
<rect x="24.3876" y="6.92728" width="4.06451" height="4.06451" fill="#FF0000"/>
<rect x="28.4521" y="4.06461" width="4.06451" height="4.06451" fill="#FF0000"/>
<rect y="26.4194" width="4.06451" height="4.06451" fill="#FF0000"/>
<rect x="4.06458" y="22.3549" width="4.06451" height="4.06451" fill="#FF0000"/>
<rect x="8.12915" y="18.2904" width="4.06451" height="4.06451" fill="#FF0000"/>
<rect x="12.1938" y="14.2258" width="4.06451" height="4.06451" fill="#FF0000"/>
<rect x="16.2579" y="10.1613" width="4.06451" height="4.06451" fill="#FF0000"/>
<rect x="20.323" y="6.09683" width="4.06451" height="4.06451" fill="#FF0000"/>
<rect x="24.3876" y="2.86264" width="4.06451" height="4.06451" fill="#FF0000"/>
<rect x="28.4521" width="4.06451" height="4.06451" fill="#FF0000"/>
<path d="M69.9168 48.6274V28.8663H74.6218V24.1613H89.7824V28.8663H94.5397V34.6692H88.7369V30.0164H75.6674V48.6274H69.9168ZM100.802 48.6274L117.427 15.0126H122.55L105.926 48.6274H100.802ZM133.537 48.6274V43.9746H128.832V28.8663H133.537V24.1613H147.704V14.9081H153.455V43.9746H148.697V48.6274H133.537ZM134.582 42.7722H147.652V30.0164H134.582V42.7722ZM163.454 48.6274V43.9746H158.748V28.8663H163.454V24.1613H178.614V28.8663H183.371V34.6692H177.569V30.0164H164.499V33.4145H173.909V39.3219H164.499V42.7722H177.569V38.0149H183.371V43.9224H178.614V48.6274H163.454ZM189.686 48.6274V42.7722H208.506V39.3219H194.391V34.6692H189.686V28.8663H194.391V24.1613H214.309V30.0164H195.437V33.4145H209.552V38.0672H214.309V43.9746H209.552V48.6274H189.686ZM220.624 48.6274V24.1613H226.375V48.6274H220.624ZM220.624 20.8155V14.9081H226.375V20.8155H220.624ZM236.408 57.8806V53.2801H231.703V47.425H237.453V52.0254H250.575V43.9746H236.408V39.3219H231.703V28.8663H236.408V24.1613H251.621V28.8663H256.326V53.2801H251.621V57.8806H236.408ZM237.453 38.0672H250.575V30.0164H237.453V38.0672ZM262.641 48.6274V24.1613H282.506V28.8663H287.264V48.6274H281.461V30.0164H268.391V48.6274H262.641Z" fill="black"/>
</svg>
